HIERARCHY
ROOT Pelvis
{
	OFFSET 0.32 0 0
	CHANNELS 6 Xposition Yposition Zposition Zrotation Xrotation Yrotation
	JOINT SpineShoulder
	{
		OFFSET 0 6.740009 0
		CHANNELS 3 Zrotation Xrotation Yrotation
		JOINT Neck
		{
			OFFSET 0 2.640004 0
			CHANNELS 3 Zrotation Xrotation Yrotation
			End Site
			{
				OFFSET 0 4.719998 0
			}
		}
		JOINT ShoulderLeft
		{
			OFFSET 3.340001 0.6799955 0
			CHANNELS 3 Zrotation Xrotation Yrotation
			JOINT ElbowLeft
			{
				OFFSET 5.307964 0 0
				CHANNELS 3 Zrotation Xrotation Yrotation
				End Site
				{
					OFFSET 4.786495 0 0
				}
			}
		}
		JOINT ShoulderRight
		{
			OFFSET -3.300001 0.6799955 0
			CHANNELS 3 Zrotation Xrotation Yrotation
			JOINT ElbowRight
			{
				OFFSET -5.307964 0 0
				CHANNELS 3 Zrotation Xrotation Yrotation
				End Site
				{
					OFFSET -4.786495 0 0
				}
			}
		}
	}
	JOINT HipLeft
	{
		OFFSET 2.560001 -1.599997 0
		CHANNELS 3 Zrotation Xrotation Yrotation
		JOINT KneeLeft
		{
			OFFSET 0 -8.508625 0
			CHANNELS 3 Zrotation Xrotation Yrotation
			End Site
			{
				OFFSET 0 -7.880188 0
			}
		}
	}
	JOINT HipRight
	{
		OFFSET -2.560001 -1.599997 0
		CHANNELS 3 Zrotation Xrotation Yrotation
		JOINT KneeRight
		{
			OFFSET 0 -8.508625 0
			CHANNELS 3 Zrotation Xrotation Yrotation
			End Site
			{
				OFFSET 0 -7.880188 0
			}
		}
	}
}
MOTION
Frames: 38
Frame Time: 0.03333334
0 0 0 0 0 0 0 0 0 0 0 0 0 0 0 0 0 0 0 0 0 0 0 0 0 0 0 0 0 0 0 0 0 0 0 0
0 0 0 -1.139601 10.8484 5.148026 -358.8615 17.32672 356.306 -358.3047 354.33 0.4625813 -69.64558 340.0825 350.5089 -357.6408 32.4774 309.1127 -295.4321 333.9418 7.651267 -340.3842 39.91349 37.98259 -3.103166 358.1264 359.6507 -359.9827 26.0731 0.7734014 -359.9727 0.7340835 0.003518377 -356.498 22.36855 359.6861
0 0 0 -1.6234 11.04554 3.615938 -359.2368 16.95281 357.2938 -357.2825 355.1832 0.7202486 -71.55104 338.5826 351.4424 -358.8135 34.69441 311.3997 -293.8377 336.0937 8.665679 -344.5422 42.14446 45.04567 -3.705573 358.8278 359.5918 -358.8422 25.91093 0.9272462 -359.4048 0.6382503 0.05988837 -357.1441 24.39474 359.7436
0 0 0 -1.37446 10.42228 8.067827 -358.4975 17.40108 356.2644 -358.3252 354.4171 0.4834096 -68.10683 344.8762 350.9418 -349.8363 28.96708 296.8292 -294.1137 329.1956 7.0768 -344.1155 48.21111 43.63233 -1.429045 4.047712 359.9154 -359.691 21.2588 0.2414862 -358.9847 3.628561 0.05841647 -354.9089 22.72122 359.3665
0 0 0 -1.472188 10.78689 4.686045 -359.1011 18.14612 356.4598 -357.0168 353.7826 0.8385313 -70.87657 338.6208 350.6288 -347.1786 35.12039 296.1038 -293.7513 334.6943 8.812899 -345.9976 43.44913 47.23537 -4.261625 0.9736553 359.6353 -357.7267 24.40332 0.8225766 -359.5275 3.203326 0.04855771 -356.672 22.00977 359.7811
0 0 0 -1.527098 10.44827 7.677808 -357.7578 18.75997 355.6286 -358.1227 352.7113 0.5975338 -67.791 340.655 352.414 -2.087944 27.36638 313.8145 -295.3167 330.1543 8.656922 -336.8174 39.23207 30.58386 -0.8009937 3.947419 359.9578 -359.6873 21.74468 0.1639921 -359.2326 6.260735 0.03603639 -354.9131 21.25297 359.6655
0 0 0 -2.522464 11.11011 7.880742 -358.3435 19.08252 355.7273 -356.751 353.7097 0.9567009 -70.6123 340.0968 352.1117 -358.6993 30.33643 310.243 -294.6954 328.9351 7.933722 -333.825 42.00687 31.31611 -359.4767 0.2074994 0.05284286 -0.009148692 24.37409 0.1041131 -357.7348 2.438025 0.1984091 -355.6579 24.67629 359.2705
0 0 0 -1.27568 10.62879 5.956184 -357.9938 16.32497 356.1354 -358.3137 354.6473 0.4816445 -69.91099 342.3177 350.7727 -6.444225 30.57111 318.339 -293.1055 336.523 11.60663 -344.01 33.38125 31.74813 -3.014511 357.0605 359.6366 -355.2669 32.11759 359.8763 -357.6601 3.700178 0.1496839 -0.6350601 21.57844 359.6125
0 0 0 -1.369055 11.13031 5.208011 -357.7932 17.68326 356.3942 -358.5153 354.4915 0.4522179 -71.73018 339.5549 351.0309 -7.602376 32.80603 319.1569 -292.8626 334.7148 10.41032 -339.3721 39.85549 35.38416 -3.657537 355.5381 359.4863 -355.4586 32.73928 0.1160446 -358.2674 0.6923866 0.1618195 -359.5646 28.79979 359.5655
0 0 0 -1.052903 11.44195 7.462719 -358.8319 15.77286 356.8906 -359.4396 357.1229 0.1532508 -73.03196 346.4781 350.9442 -5.504009 29.77557 316.5048 -290.8419 332.9773 12.18009 -339.1771 47.89469 38.48692 -2.099562 353.6382 359.6982 -357.9181 37.96801 359.9455 -358.71 2.062447 0.09879821 -357.5524 24.92937 359.3467
0 0 0 -1.041183 11.40499 9.46268 -358.6077 17.80096 355.8672 -358.2086 354.7535 0.5526303 -73.68209 346.3728 350.9636 -8.340337 25.90601 321.3084 -292.3958 327.9532 10.53079 -335.1419 49.79971 35.60822 -1.551628 353.8997 359.8081 -359.2738 36.65523 0.02704704 -357.6017 2.378728 0.1729321 -359.4542 22.99615 359.2707
0 0 0 -0.9888675 11.28947 9.570938 -358.6862 17.57345 355.6146 -358.1622 355.5797 0.5423776 -73.89692 346.2906 351.303 -8.295951 25.08515 322.5625 -292.5751 328.3874 10.24719 -334.3653 48.6501 34.10254 -1.526851 353.6014 359.8149 -354.6553 38.91073 358.5383 -357.315 2.853422 0.1768139 -0.4781011 21.85002 359.3176
0 0 0 -0.856808 10.85824 9.063965 -359.1076 17.86789 356.6555 -358.0185 354.7877 0.5975171 -72.3285 345.2639 353.8362 -9.806814 24.61657 322.6808 -291.7258 329.4338 13.14485 -346.0284 52.68037 48.67801 -2.005509 353.6593 359.7474 -357.7473 35.81706 359.7248 -357.7006 3.958473 0.1096804 -359.3518 25.07746 359.2066
0 0 0 -1.391221 10.67365 9.884725 -358.0873 18.27182 356.5024 -357.9419 352.9884 0.6908361 -72.55723 345.4207 354.6992 -14.89004 24.47716 326.0493 -290.1611 326.7129 10.90793 -339.4456 45.28992 30.63144 -0.4729039 354.8291 359.9549 -358.6077 33.94625 359.6432 -357.1395 5.983417 0.09646796 -0.03247137 18.36687 359.4439
0 0 0 -1.485368 11.10755 8.382445 -358.2759 18.13206 356.6059 -357.7085 354.4803 0.7111537 -73.26112 343.8153 353.0848 -14.17977 27.68524 325.4265 -291.0525 328.8412 10.7472 -339.4965 46.64682 35.64323 -0.9363073 353.2681 359.8622 -358.7625 34.86497 359.907 -357.5789 3.134453 0.1678727 -359.6725 20.82948 359.4919
0 0 0 -1.001704 11.45607 6.446016 -358.5227 17.59553 356.9478 -358.9954 355.379 0.3089651 -73.68694 341.3676 353.1822 -9.908062 29.60811 322.825 -290.5344 332.5472 12.01637 -341.0211 45.08595 37.94302 -1.744215 354.5746 359.7564 -359.4316 30.80798 0.2790218 -358.2247 1.625042 0.1497117 -359.5902 24.65993 359.4893
0 0 0 -0.9136582 11.06294 9.032145 -359.0998 19.03766 356.1005 -358.0486 354.4816 0.5990001 -72.78269 343.7174 352.6487 -9.991444 25.8794 322.9716 -292.3546 328.1521 11.77834 -337.2396 45.80578 34.09838 -1.820812 354.4953 359.777 -358.7241 31.92026 359.9792 -357.9755 1.906028 0.1489485 -359.2968 26.96571 359.1986
0 0 0 -1.007824 10.81067 5.40574 -359.3187 16.46555 357.222 -358.6572 356.7021 0.3444383 -73.28047 342.8936 351.5358 -7.368245 30.72306 320.9974 -291.1972 335.2379 10.96043 -342.3613 40.86849 36.75866 -4.45823 357.5888 359.4835 -354.167 28.84595 0.07997551 -0.1731993 1.068705 359.985 -356.0487 28.40449 359.4397
0 0 0 -1.033239 11.07513 4.537271 -359.4171 16.44172 357.5656 -358.6013 356.6552 0.3591606 -73.61402 341.1172 352.3327 -7.160541 32.11668 320.824 -291.3802 335.2827 9.915709 -342.9949 40.82169 37.99653 -5.03653 356.8853 359.3696 -353.5479 27.84297 0.1449851 -0.1739522 2.283945 359.9897 -356.5812 24.03099 359.7393
0 0 0 -0.8944272 10.41869 5.955297 -359.4435 14.75525 357.1575 -358.776 358.8585 0.2803316 -73.15283 346.2751 351.169 -6.027898 27.79038 321.8055 -291.1741 336.9474 11.55741 -342.4562 40.2846 35.63112 -5.094851 356.7619 359.3964 -352.5 29.49104 359.7879 -358.222 359.7048 0.1677063 -359.701 31.93607 359.3584
0 0 0 -0.9897865 11.51686 3.444789 -359.3916 17.5171 356.8341 -359.1734 355.552 0.1927816 -74.99779 337.8391 350.3683 -6.696286 34.29667 322.2147 -291.2407 336.6063 9.50094 -341.1512 36.88227 35.49302 -7.248404 359.0526 359.2037 -353.5162 25.23455 0.8680723 -0.7726198 358.3878 359.9068 -359.2019 30.7257 0.1509817
0 0 0 -1.458433 11.19733 2.175318 -358.8123 15.67224 356.1718 -358.0685 357.0054 0.4645569 -75.75095 338.0884 348.2556 -7.513067 36.82448 324.1791 -292.8949 341.4127 8.377897 -340.8909 34.39738 37.46157 -4.663282 358.1095 359.4472 -357.1732 26.21301 0.9255644 -358.3449 357.8224 0.1741616 -0.5093331 31.67983 359.9267
0 0 0 -0.9238824 10.53977 3.4782 -359.2923 15.80543 355.5358 -358.3169 356.5175 0.3916414 -72.72453 340.2243 347.5869 -0.7689672 38.38639 312.8569 -294.0062 340.3216 8.099373 -342.5659 35.47542 39.29566 -4.564035 359.6138 359.5611 -357.8467 27.47302 0.8794752 -1.313998 358.794 359.8616 -357.6966 32.1061 359.9893
0 0 0 -0.6476778 9.952124 1.848405 -359.3505 15.94836 354.4487 -358.5235 355.4435 0.3059776 -73.09509 338.1664 344.533 -357.7766 40.62738 312.528 -295.0341 344.4442 6.997966 -341.4286 24.61499 32.74761 -4.842969 2.012476 359.6678 -358.6409 23.99039 0.9856659 -1.471724 359.0927 359.8575 -358.9699 32.84987 0.3193152
0 0 0 -0.8193821 10.52562 1.912991 -359.3144 16.90682 354.4257 -358.4192 356.2091 0.3511554 -73.69507 337.4365 343.3929 -0.7790402 46.36667 308.4908 -295.5386 342.5091 6.4738 -338.8848 29.22256 35.55692 -4.714185 359.6369 359.5482 -358.6703 25.24503 1.010943 -1.333265 357.1563 359.8325 -359.3464 33.85773 0.4045376
0 0 0 -1.057577 10.26511 1.897176 -359.4601 14.58289 355.7209 -359.1981 357.3467 0.1458613 -73.76299 339.5845 347.2666 -330.1348 43.75146 273.3239 -292.514 342.7292 5.228221 -348.0564 36.5349 46.17804 -8.001433 0.5931116 359.3228 -355.5739 26.10191 1.464834 -359.3856 356.3728 0.05169662 -0.4604607 36.5208 0.1641778
0 0 0 -1.754928 10.33144 3.856357 -358.9479 15.66077 355.8755 -358.1299 355.635 0.4257045 -71.24133 341.1894 347.7886 -323.5438 38.90634 260.6405 -293.0933 338.1048 5.163538 -346.0628 39.56178 44.21696 -4.304952 359.616 359.5891 -357.8127 21.23599 0.8086607 -359.0578 354.6371 0.07967485 -359.4395 38.5081 359.8712
0 0 0 -1.921225 9.258012 3.196244 -359.4966 15.34889 356.1752 -358.4498 355.063 0.2887392 -70.75102 342.8745 346.4363 -304.6646 19.88707 245.5138 -291.8577 340.0283 4.571691 -350.9579 33.12572 42.04509 -3.403253 0.03428767 359.723 -358.9352 20.0526 0.7660336 -357.0839 356.1748 0.2877831 -1.259029 39.15262 359.8496
0 0 0 -1.866413 10.77177 4.052115 -359.2169 14.62269 355.6359 -357.8705 355.7886 0.4686956 -71.6376 342.8038 346.3636 -305.3882 22.21212 243.6263 -292.9987 338.9198 5.201252 -349.6142 35.15731 43.20433 -3.888693 359.2391 359.5966 -358.3768 20.93565 0.786503 -358.977 355.2737 0.0931896 -359.3505 38.0238 359.8394
0 0 0 -2.627765 9.511338 3.094575 -358.3154 14.65449 356.1126 -358.6022 356.2485 0.2732943 -71.33201 341.7593 348.0125 -313.845 31.88027 252.8958 -292.0225 342.0004 6.528008 -351.2997 31.0787 40.85897 -2.324664 358.5444 359.7477 -359.8396 24.59307 0.9648176 -356.5823 352.757 0.3676228 -2.199342 42.11721 0.3136928
0 0 0 -2.669571 9.826214 3.673276 -358.213 14.71422 355.9862 -358.6269 355.9168 0.2733118 -71.2439 342.165 347.9474 -314.4843 31.72665 253.0669 -292.0037 340.6918 6.277832 -347.8755 29.95344 35.58715 -2.15445 358.0284 359.7399 -0.01152149 24.79821 0.9435818 -356.6279 352.6633 0.3765609 -1.941918 41.87466 0.202373
0 0 0 -2.766808 11.17411 1.017484 -357.6376 15.73195 355.4207 -358.67 355.1872 0.2672147 -72.91324 336.6932 344.1783 -314.6358 38.25695 252.8547 -293.362 345.3925 8.987392 -345.4973 30.04913 41.73136 -1.539155 356.7346 359.7317 -0.6453005 24.53603 1.010708 -357.2084 355.3328 0.2809163 -1.324273 31.01256 0.2395706
0 0 0 -1.817228 11.12896 3.404995 -358.3205 15.13806 355.29 -358.6559 355.5472 0.2979989 -71.74001 340.1603 346.2711 -338.0719 46.063 276.754 -293.0681 340.8924 7.462533 -343.5706 34.22044 38.84452 -3.894583 358.3529 359.5452 -358.2075 25.04552 0.8985542 -356.6913 354.8691 0.4188946 -3.66678 34.9594 0.2916991
0 0 0 -1.394388 11.5099 0.8927922 -359.0603 16.48708 355.31 -358.6072 355.9034 0.2982983 -74.78471 335.652 344.4209 -357.5587 48.48116 304.5059 -293.5933 342.8014 6.668438 -338.9321 31.90874 37.45018 -6.436813 357.843 359.2061 -357.2061 26.7948 1.42511 -359.9679 353.3015 359.9336 -359.8163 36.79183 0.3480989
0 0 0 -1.122382 12.0076 2.306695 -358.8382 17.02516 354.8643 -359.2853 354.9357 0.120679 -75.78618 336.8909 344.0767 -3.340415 45.0565 312.64 -292.4857 339.728 6.181806 -337.6569 30.91272 32.28781 -7.058466 358.3602 359.1451 -356.5575 25.84906 1.3305 -359.7151 355.8976 0.01694207 -0.4213506 30.00852 0.1843023
0 0 0 -1.674389 11.02354 4.699054 -358.4292 16.09267 355.2377 -359.0966 356.9061 0.2012516 -72.6101 342.0806 345.7719 -355.5517 42.73463 300.619 -292.8737 338.1235 7.928583 -337.0125 33.20964 30.11074 -4.651464 358.1095 359.458 -357.1763 26.79972 0.8714465 -358.5747 359.1216 0.1436078 -0.1338422 26.64761 359.861
0 0 0 -2.642457 11.57205 7.162096 -357.9011 16.75963 355.2375 -358.7059 355.981 0.3189064 -72.58401 344.9802 345.5361 -356.3842 38.88642 302.1096 -290.4259 334.6588 10.43868 -337.8968 39.71083 32.59165 -2.708572 357.9232 359.6496 -357.584 31.37249 0.6453916 -356.916 358.5344 0.3424586 -359.9297 30.37837 359.4564
0 0 0 -2.247564 10.12373 3.494878 -359.2048 15.40126 356.4641 -357.969 356.4171 0.4424301 -72.04401 341.5694 348.3613 -0.1554609 36.08139 314.0978 -292.2343 340.1571 7.85875 -341.1483 37.44351 38.31283 -4.001474 2.19252 359.7489 -356.9097 28.87117 1.033674 -356.6069 2.664962 0.2637556 -357.6309 28.21836 359.199
